<svg width="99" height="60" viewBox="0 0 99 60" fill="none" xmlns="http://www.w3.org/2000/svg">
  <path
    d="M17.9446 2.14286H24.6654H57.8834C65.406 2.14286 70.9574 5.56526 74.6775 10.6905C78.4395 15.8733 80.3806 22.8855 80.3806 30C80.3806 37.1145 78.4395 44.1267 74.6775 49.3095C70.9574 54.4348 65.406 57.8571 57.8834 57.8571H57.6922H57.5017H57.3116H57.1221H56.9331H56.7447H56.5567H56.3694H56.1825H55.9962H55.8104H55.6251H55.4403H55.2561H55.0724H54.8893H54.7066H54.5245H54.3429H54.1619H53.9813H53.8013H53.6218H53.4428H53.2644H53.0864H52.909H52.7321H52.5557H52.3798H52.2045H52.0297H51.8553H51.6815H51.5082H51.3355H51.1632H50.9914H50.8202H50.6495H50.4792H50.3095H50.1403H49.9716H49.8034H49.6357H49.4686H49.3019H49.1357H48.9701H48.8049H48.6403H48.4761H48.3125H48.1493H47.9867H47.8245H47.6629H47.5017H47.3411H47.1809H47.0213H46.8621H46.7034H46.5453H46.3876H46.2304H46.0737H45.9175H45.7618H45.6066H45.4519H45.2976H45.1439H44.9906H44.8379H44.6856H44.5338H44.3825H44.2317H44.0813H43.9315H43.7821H43.6332H43.4848H43.3369H43.1894H43.0425H42.896H42.75H42.6045H42.4594H42.3149H42.1708H42.0271H41.884H41.7413H41.5991H41.4574H41.3162H41.1754H41.0351H40.8953H40.7559H40.617H40.4786H40.3406H40.2032H40.0661H39.9296H39.7935H39.6579H39.5227H39.388H39.2538H39.12H38.9867H38.8539H38.7215H38.5896H38.4581H38.3271H38.1966H38.0665H37.9369H37.8077H37.679H37.5507H37.4229H37.2955H37.1686H37.0422H36.9162H36.7907H36.6656H36.5409H36.4167H36.293H36.1697H36.0468H35.9244H35.8025H35.681H35.5599H35.4393H35.3191H35.1994H35.0801H34.9612H34.8428H34.7248H34.6073H34.4902H34.3736H34.2574H34.1416H34.0263H33.9114H33.7969H33.6829H33.5693H33.4561H33.3434H33.2311H33.1192H33.0078H32.8968H32.7862H32.6761H32.5663H32.4571H32.3482H32.2398H32.1318H32.0242H31.917H31.8103H31.704H31.5981H31.4926H31.3876H31.283H31.1788H31.075H30.9716H30.8687H30.7662H30.6641H30.5624H30.4611H30.3602H30.2598H30.1598H30.0602H29.961H29.8622H29.7638H29.6658H29.5683H29.4711H29.3744H29.278H29.1821H29.0866H28.9915H28.8968H28.8025H28.7086H28.6151H28.522H28.4294H28.3371H28.2452H28.1537H28.0626H27.972H27.8817H27.7918H27.7023H27.6132H27.5246H27.4363H27.3484H27.2609H27.1737H27.087H27.0007H26.9148H26.8292H26.7441H26.6593H26.575H26.491H26.4074H26.3242H26.2414H26.1589H26.0769H25.9952H25.914H25.8331H25.7526H25.6724H25.5927H25.5133H25.4344H25.3558H25.2775H25.1997H25.1222H25.0451H24.9684H24.8921H24.8161H24.7406H24.6654H24.5905H24.5161H24.442H24.3683H24.2949H24.2219H24.1493H24.0771H24.0052H23.9337H23.8626H23.7918H23.7214H23.6514H23.5817H23.5124H23.4435H23.3749H23.3067H23.2389H23.1714H23.1042H23.0375H22.971H22.905H22.8393H22.774H22.709H22.6444H22.5801H22.5162H22.4526H22.3894H22.3266H22.2641H22.2019H22.1401H22.0787H22.0176H21.9568H21.8964H21.8364H21.7767H21.7173H21.6583H21.5996H21.5413H21.4833H21.4257H21.3684H21.3115H21.2549H21.1986H21.1427H21.0871H21.0318H20.9769H20.9223H20.8681H20.8142H20.7607H20.7074H20.6545H20.602H20.5498H20.4979H20.4463H20.3951H20.3442H20.2936H20.2434H20.1935H20.1439H20.0947H20.0457H19.9971H19.9489H19.9009H19.8533H19.806H19.759H19.7124H19.666H19.62H19.5743H19.529H19.4839H19.4392H19.3948H19.3507H19.3069H19.2635H19.2203H19.1775H19.135H19.0928H19.0509H19.0093H18.9681H18.9271H18.8865H18.8461H18.8061H18.7664H18.727H18.6879H18.6491H18.6106H18.5725H18.5346H18.497H18.4597H18.4228H18.3861H18.3498H18.3137H18.278H18.2425H18.2074H18.1725H18.1379H18.1037H18.0697H18.036H18.0027H17.9696H17.9446V2.14286Z"
    stroke="#AAAAAA"
    stroke-width="4"
  />
  <path d="M16.6641 46.1148H-0.000782013" stroke="#AAAAAA" stroke-width="3" />
  <path d="M99 29H81" stroke="#AAAAAA" stroke-width="3" />
  <path d="M16.6634 12.7869L0 12.7869" stroke="#AAAAAA" stroke-width="3" />
</svg>
