<svg width="116" height="82" viewBox="0 0 116 82" fill="none" xmlns="http://www.w3.org/2000/svg">
  <path
    d="M81.1943 43.2675L30.5946 71.4101C29.2602 72.1522 27.6199 71.1857 27.6226 69.6588L27.7217 13.1997C27.7244 11.6728 29.3681 10.7119 30.6999 11.4587L81.2005 39.7752C82.5656 40.5406 82.5621 42.5067 81.1943 43.2675Z"
    stroke="#AAAAAA"
    stroke-width="4"
  />
  <path
    d="M94.5328 40.9913C94.5328 43.5266 92.4519 45.6082 89.8525 45.6082C87.253 45.6082 85.1721 43.5266 85.1721 40.9913C85.1721 38.4559 87.253 36.3743 89.8525 36.3743C92.4519 36.3743 94.5328 38.4559 94.5328 40.9913Z"
    stroke="#AAAAAA"
    stroke-width="3"
  />
  <path d="M25.6721 40.9912C15.9483 40.9925 1.42623 40.9912 -1.51992e-05 40.9912" stroke="#AAAAAA" stroke-width="3" />
  <line x1="116" y1="41.0796" x2="94.1311" y2="41.0796" stroke="#AAAAAA" stroke-width="3" />
</svg>

